<?xml version="1.0" ?><svg height="100" id="svg8" version="1.1" viewBox="0 0 31.75 31.75" width="100" xmlns="http://www.w3.org/2000/svg" xmlns:cc="http://creativecommons.org/ns#" xmlns:dc="http://purl.org/dc/elements/1.1/" xmlns:rdf="http://www.w3.org/1999/02/22-rdf-syntax-ns#" xmlns:svg="http://www.w3.org/2000/svg"><defs id="defs2"><pattern height="6" id="EMFhbasepattern" patternUnits="userSpaceOnUse" width="6" x="0" y="0"/><pattern height="6" id="EMFhbasepattern-3" patternUnits="userSpaceOnUse" width="6" x="0" y="0"/><pattern height="6" id="EMFhbasepattern-4" patternUnits="userSpaceOnUse" width="6" x="0" y="0"/><pattern height="6" id="EMFhbasepattern-6" patternUnits="userSpaceOnUse" width="6" x="0" y="0"/></defs><g id="layer1" transform="translate(0,-270.54165)"><path d="m 20.084715,272.15401 c -0.444573,0.007 -0.799203,0.37335 -0.792509,0.81793 h -6.21e-4 v 14.5033 c -0.821296,-0.70696 -1.854603,-1.11354 -3.050976,-1.13295 -1.129241,0 -2.258459,0.34386 -3.3877,1.03126 -1.08015,-0.68769 -2.25846,-1.03126 -3.3877006,-1.03126 -1.3743378,0.0111 -2.6820349,0.57126 -3.6332664,1.71897 -0.6382551,0.88376 -1.031255,2.06175 -1.031255,3.53466 0,3.87868 2.5530553,5.45002 5.351611,7.21755 0.736464,0.44188 1.473007,0.93222 2.209478,1.47278 l 0.491133,0.39315 0.491132,-0.39315 c 0.736465,-0.54006 1.472907,-1.03083 2.258467,-1.47278 2.749459,-1.76753 5.302622,-3.33887 5.302622,-7.21755 0,-0.0594 -0.0049,-0.11519 -0.0062,-0.17363 h 0.0043 v -9.86172 c 0.361259,0.17417 0.762221,0.27471 1.185664,0.27471 0.712344,0 1.232173,0.53925 1.232173,1.18566 0,1.53406 1.263303,2.79673 2.797349,2.79673 1.107809,0.0343 1.107809,-1.64536 0,-1.61106 -0.64645,0 -1.185665,-0.53917 -1.185665,-1.18567 0,-1.53402 -1.280906,-2.79673 -2.843857,-2.79673 -0.646454,0 -1.185664,-0.52042 -1.185664,-1.23279 v -3.49312 c 0.361274,0.1716 0.762199,0.27099 1.185664,0.27099 0.712344,0 1.232173,0.51979 1.232173,1.23218 0,1.53403 1.263296,2.79672 2.797349,2.79672 1.097921,0.0229 1.097921,-1.63579 0,-1.61292 -0.646443,0 -1.185665,-0.53738 -1.185665,-1.1838 0,-1.56297 -1.280906,-2.84386 -2.843857,-2.84386 -0.646459,0 -1.185664,-0.53923 -1.185664,-1.18567 0.0068,-0.45478 -0.363779,-0.82511 -0.818555,-0.81793 z M 9.4652084,287.96328 c 0.9328526,0 1.9637156,0.3432 2.8965676,1.07962 l 0.491133,0.34417 0.491132,-0.34417 c 0.98195,-0.73606 1.963716,-1.07962 2.896568,-1.07962 0.86668,0.007 1.715972,0.37542 2.307456,1.12861 0.441809,0.58923 0.68771,1.42384 0.68771,2.50403 0,2.94583 -2.160259,4.32085 -4.516934,5.79376 -0.638269,0.39279 -1.276781,0.78525 -1.865932,1.22721 -0.589165,-0.44188 -1.227692,-0.8342 -1.865933,-1.22721 -2.3566751,-1.47291 -4.5169337,-2.84793 -4.5169337,-5.79376 0,-1.08019 0.2458289,-1.91451 0.6877101,-2.50403 0.5078791,-0.66323 1.3776011,-1.08941 2.307456,-1.12861 z" id="path4535" style="opacity:1;vector-effect:none;fill:#000000;fill-opacity:1;fill-rule:nonzero;stroke:none;stroke-width:2.28534341;stroke-linecap:butt;stroke-linejoin:miter;stroke-miterlimit:4;stroke-dasharray:none;stroke-dashoffset:0;stroke-opacity:1"/></g></svg>
